<svg fill="#000000" xmlns="http://www.w3.org/2000/svg"  viewBox="0 0 50 50" width="50px" height="50px"><path d="M 11 3 L 11 10 L 22 10 L 22 24 C 22 25.687608 21.94981 26.944015 21.767578 27.882812 C 21.585343 28.821611 21.305231 29.429487 20.78125 30.023438 C 19.733288 31.211336 17.430848 32.345217 13 34.341797 L 12.121094 34.736328 L 12.484375 35.628906 C 13.153764 37.277528 14.083523 38.879385 15.320312 40.373047 L 15.804688 40.958984 L 16.498047 40.648438 C 21.55875 38.388088 24.680691 36.605074 26.589844 34.216797 C 28.498997 31.82852 29 28.95409 29 25 L 29 3 L 28 3 L 11 3 z M 32 3 L 32 26 C 32 30.95742 31.04045 33.902239 29.091797 36.212891 C 27.143143 38.523542 24.057762 40.261557 19.695312 42.394531 L 18.111328 43.167969 L 19.587891 44.128906 C 20.708677 44.859767 21.952033 45.66734 24.574219 46.904297 L 25 47.105469 L 25.425781 46.904297 C 28.852677 45.290231 32.246727 43.247978 34.796875 40.109375 C 37.347023 36.970772 39 32.742816 39 27 L 39 3 L 32 3 z M 13 5 L 27 5 L 27 25 C 27 28.79291 26.563941 31.044574 25.027344 32.966797 C 23.590921 34.763706 20.852963 36.407581 16.458984 38.425781 C 15.800782 37.544968 15.266973 36.630308 14.822266 35.691406 C 18.517629 34.023964 20.895305 32.918671 22.28125 31.347656 C 23.046269 30.480481 23.500204 29.449904 23.730469 28.263672 C 23.960734 27.07744 24 25.722892 24 24 L 24 8 L 13 8 L 13 5 z M 34 5 L 37 5 L 37 27 C 37 32.366184 35.514945 36.05526 33.246094 38.847656 C 31.079035 41.514771 28.129567 43.343175 24.998047 44.857422 C 23.652643 44.202528 22.946484 43.759439 22.210938 43.306641 C 25.741847 41.515714 28.651809 39.837068 30.621094 37.501953 C 32.91294 34.784354 34 31.22558 34 26 L 34 5 z"/></svg>